<svg width="70" height="50" viewBox="0 0 70 50" fill="none" xmlns="http://www.w3.org/2000/svg">
<path d="M69.161 11.0324L46.9929 0.0728332C46.7963 -0.024237 46.5675 -0.024237 46.371 0.0728332L24.2029 11.0324C23.9557 11.1546 23.7986 11.4109 23.7986 11.692V38.308C23.7986 38.5891 23.9557 38.8455 24.2029 38.9676L46.371 49.9272C46.4692 49.9757 46.5756 50 46.6819 50C46.7882 50 46.8946 49.9757 46.9929 49.9272L69.161 38.9676C69.4082 38.8455 69.5652 38.5891 69.5652 38.308V11.6921C69.5652 11.4108 69.4081 11.1547 69.161 11.0324ZM46.6819 1.54578L67.205 11.692L61.2558 14.6332C61.2181 14.6038 61.1783 14.5766 61.1346 14.555L40.751 4.47791L46.6819 1.54578ZM39.1358 5.30603L59.629 15.4375L55.4318 17.5126L34.947 7.38523L39.1358 5.30603ZM60.1085 16.8269V24.4974L56.188 26.4357V18.7652L60.1085 16.8269ZM68.1348 37.8485L47.3971 48.1006V23.1112L52.3437 20.6657C52.6994 20.4898 52.8486 20.052 52.6768 19.6877C52.5051 19.3235 52.0776 19.1706 51.7218 19.3465L46.6819 21.8382L44.6988 20.8578C44.343 20.6817 43.9155 20.8346 43.7438 21.1989C43.572 21.5631 43.7212 22.001 44.0769 22.1769L45.9667 23.1112V48.1006L25.229 37.8483V12.8589L41.0206 20.666C41.1208 20.7156 41.2268 20.739 41.331 20.739C41.5969 20.739 41.8522 20.5865 41.9755 20.3249C42.1473 19.9606 41.9981 19.5227 41.6424 19.3468L26.1589 11.692L33.2637 8.17947L54.7476 18.8008C54.7508 18.8053 54.7543 18.8093 54.7576 18.8137V27.6027C54.7576 27.8547 54.8841 28.089 55.0926 28.2231C55.2083 28.2975 55.3404 28.3351 55.4729 28.3351C55.5789 28.3351 55.6852 28.311 55.7837 28.2623L61.1346 25.6169C61.3818 25.4947 61.5389 25.2384 61.5389 24.9573V16.1199L68.1348 12.859V37.8485Z" fill="white"/>
<path d="M31.1312 35.0078L27.878 33.3995C27.5221 33.2234 27.0947 33.3763 26.923 33.7406C26.7513 34.1048 26.9004 34.5427 27.2561 34.7186L30.5093 36.3269C30.6095 36.3765 30.7155 36.3999 30.8197 36.3999C31.0856 36.3999 31.3409 36.2474 31.4642 35.9858C31.6361 35.6214 31.4869 35.1837 31.1312 35.0078Z" fill="white"/>
<path d="M34.1252 33.012L27.8825 29.9256C27.5267 29.7498 27.0992 29.9025 26.9275 30.2669C26.7558 30.6311 26.905 31.069 27.2607 31.2449L33.5034 34.3312C33.6036 34.3807 33.7096 34.4043 33.8138 34.4043C34.0797 34.4043 34.335 34.2517 34.4583 33.9901C34.6301 33.6256 34.4809 33.1877 34.1252 33.012Z" fill="white"/>
<path fill-rule="evenodd" clip-rule="evenodd" d="M5.49199 19.2308H20.1373V21.1539H5.49199V19.2308Z" fill="white"/>
<path fill-rule="evenodd" clip-rule="evenodd" d="M10.984 28.8462H20.1373V30.7693H10.984V28.8462Z" fill="white"/>
<path fill-rule="evenodd" clip-rule="evenodd" d="M1.60042e-07 36.5385L20.1373 36.5385V38.4616L0 38.4616L1.60042e-07 36.5385Z" fill="white"/>
</svg>
