<svg width="51" height="50" viewBox="0 0 51 50" fill="none" xmlns="http://www.w3.org/2000/svg">
<path d="M47.5036 28.2292V45.8334C47.5036 48.1309 45.6344 50 43.3369 50H6.67027C4.37277 50 2.50361 48.1309 2.50361 45.8334V28.2292C2.50361 27.769 2.87673 27.3959 3.33694 27.3959C3.79715 27.3959 4.17027 27.769 4.17027 28.2292V45.8334C4.17027 47.2119 5.29173 48.3334 6.67027 48.3334H15.7328V34.2709C15.7328 31.9734 17.6019 30.1042 19.8994 30.1042H30.1078C32.4053 30.1042 34.2744 31.9734 34.2744 34.2709V45C34.2744 45.4602 33.9013 45.8334 33.4411 45.8334C32.9809 45.8334 32.6078 45.4602 32.6078 45V34.2709C32.6078 32.8924 31.4862 31.7709 30.1078 31.7709H19.8994C18.521 31.7709 17.3994 32.8924 17.3994 34.2709V48.3334H24.1703V35.2084C24.1703 34.7482 24.5434 34.375 25.0036 34.375C25.4638 34.375 25.8369 34.7482 25.8369 35.2084V48.3334H43.3369C44.7154 48.3334 45.8369 47.2119 45.8369 45.8334V28.2292C45.8369 27.769 46.21 27.3959 46.6703 27.3959C47.1305 27.3959 47.5036 27.7689 47.5036 28.2292ZM5.42027 13.3334C5.42027 13.7936 5.7934 14.1667 6.25361 14.1667C51.594 14.1667 49.346 14.2477 49.6772 13.9937C49.8504 13.8604 49.9636 13.6683 49.9946 13.4487C50.0411 13.1138 50.3402 13.9373 44.5182 0.50201C44.386 0.197218 44.0857 3.05176e-05 43.7535 3.05176e-05H6.2535C5.92142 3.05176e-05 5.6209 0.197322 5.48892 0.50201L0.0722557 13.002C-0.0234735 13.2231 0.0035057 12.8722 0.0035057 18.5034C0.00954736 22.2935 3.09361 25.377 6.8785 25.377C9.48048 25.377 11.7512 23.9197 12.9184 21.7774C15.5253 26.5681 22.3918 26.5734 25.0035 21.7807C27.6131 26.5695 34.4766 26.5706 37.0868 21.7807C38.2532 23.9211 40.5241 25.377 43.1285 25.377C46.9194 25.377 50.0035 22.2929 50.0035 18.502C50.0035 18.0418 49.6304 17.6687 49.1702 17.6687C48.7099 17.6687 48.3368 18.0418 48.3368 18.502C48.3368 21.3739 46.0004 23.7103 43.1285 23.7103C40.2566 23.7103 37.9202 21.3739 37.9202 18.502C37.9202 18.0418 37.547 17.6687 37.0868 17.6687C36.6266 17.6687 36.2535 18.0418 36.2535 18.502C36.2535 21.3739 33.917 23.7103 31.0452 23.7103C28.1733 23.7103 25.8368 21.3739 25.8368 18.502C25.8368 18.0418 25.4637 17.6687 25.0035 17.6687C24.5433 17.6687 24.1702 18.0418 24.1702 18.502C24.1702 21.3739 21.8337 23.7103 18.9618 23.7103C16.1538 23.7103 13.7535 21.4537 13.7535 18.4603C13.7535 18.0001 13.3804 17.627 12.9202 17.627C12.46 17.627 12.0868 18.0001 12.0868 18.4603C12.0868 21.4284 9.70152 23.7103 6.8785 23.7103C4.01121 23.7103 1.67465 21.3733 1.67017 18.502V13.5061L6.80069 1.6667H43.2065L47.9009 12.5H6.25361C5.7933 12.5 5.42027 12.8731 5.42027 13.3334Z" fill="white"/>
</svg>
