<svg width="66" height="70" viewBox="0 0 66 70" fill="none" xmlns="http://www.w3.org/2000/svg">
<path d="M65.3943 15.4453L33.4368 0.101924C33.1535 -0.0339746 32.8235 -0.0339746 32.5404 0.101924L0.582737 15.4453C0.226414 15.6163 0 15.9752 0 16.3687V53.6312C0 54.0247 0.226414 54.3836 0.582737 54.5546L32.5402 69.898C32.6818 69.966 32.8352 70 32.9885 70C33.1418 70 33.2951 69.966 33.4368 69.898L65.3943 54.5546C65.7506 54.3836 65.977 54.0247 65.977 53.6312V16.3688C65.977 15.9751 65.7505 15.6165 65.3943 15.4453ZM32.9885 2.16405L62.5745 16.3687L53.9981 20.4864C53.9438 20.4452 53.8865 20.4072 53.8235 20.377L24.4385 6.26903L32.9885 2.16405ZM22.1101 7.4284L51.653 21.6124L45.6022 24.5175L16.0715 10.3393L22.1101 7.4284ZM52.3442 23.5576V34.2963L46.6924 37.0099V26.2712L52.3442 23.5576ZM63.915 52.9878L34.0195 67.3408V32.3556L41.1505 28.9319C41.6633 28.6857 41.8783 28.0728 41.6307 27.5627C41.3831 27.0529 40.7669 26.8388 40.254 27.0851L32.9885 30.5735L30.1297 29.2008C29.6168 28.9543 29.0005 29.1684 28.7529 29.6784C28.5053 30.1884 28.7203 30.8014 29.2331 31.0476L31.9575 32.3556V67.3408L2.06206 52.9876V18.0024L24.8272 28.9323C24.9716 29.0018 25.1244 29.0346 25.2746 29.0346C25.6579 29.0346 26.026 28.821 26.2038 28.4548C26.4514 27.9448 26.2364 27.3318 25.7236 27.0855L3.40253 16.3687L13.6448 11.4512L44.616 26.3211C44.6206 26.3274 44.6257 26.333 44.6303 26.3392V38.6437C44.6303 38.9966 44.8128 39.3246 45.1133 39.5123C45.2802 39.6165 45.4705 39.6691 45.6615 39.6691C45.8144 39.6691 45.9676 39.6353 46.1096 39.5671L53.8235 35.8635C54.1798 35.6925 54.4063 35.3338 54.4063 34.9402V22.5678L63.915 18.0025V52.9878Z" fill="white"/>
<path d="M10.5707 49.0108L5.88086 46.7592C5.36782 46.5127 4.75168 46.7268 4.50409 47.2368C4.25651 47.7467 4.47151 48.3598 4.98428 48.606L9.67408 50.8576C9.81856 50.9271 9.97129 50.9599 10.1215 50.9599C10.5048 50.9599 10.873 50.7463 11.0507 50.3801C11.2984 49.87 11.0834 49.2572 10.5707 49.0108Z" fill="white"/>
<path d="M14.8868 46.2167L5.88731 41.8959C5.37441 41.6496 4.75813 41.8635 4.51054 42.3736C4.2631 42.8835 4.4781 43.4966 4.99087 43.7428L13.9904 48.0636C14.1348 48.133 14.2876 48.1659 14.4378 48.1659C14.8211 48.1659 15.1892 47.9524 15.367 47.5861C15.6146 47.0759 15.3996 46.4628 14.8868 46.2167Z" fill="white"/>
</svg>
