<svg width="137" height="121" viewBox="0 0 137 121" fill="none" xmlns="http://www.w3.org/2000/svg">
<path d="M39.2544 36.1391L38.8144 36.0391L40.9144 27.0091C41.0444 26.4291 41.5544 26.0291 42.1544 26.0291H45.0644V26.4791H42.1544C41.7744 26.4791 41.4444 26.7391 41.3544 27.1191L39.2544 36.1391Z" fill="#A8D3F1"/>
<path d="M39.6444 36.159L39.2244 35.999L43.6444 24.269C43.8444 23.739 44.3544 23.389 44.9144 23.389H48.2044V23.839H44.9144C44.5344 23.839 44.1944 24.079 44.0644 24.429L39.6444 36.159Z" fill="white"/>
<path d="M46.1544 23.849C45.5544 23.849 45.0744 24.929 45.0744 26.259C45.0744 27.589 45.5544 28.669 46.1544 28.669V23.849Z" fill="#A8D3F1"/>
<path d="M51.6144 23.759C51.6144 25.859 50.8544 27.559 49.9144 27.559C48.9744 27.559 48.2144 25.859 48.2144 23.759C48.2144 21.659 48.9744 19.959 49.9144 19.959C50.8544 19.959 51.6144 21.659 51.6144 23.759Z" fill="white"/>
<path d="M20.2344 88.3791C11.4644 88.3791 4.35442 95.489 4.35442 104.259C4.35442 113.029 11.4644 120.139 20.2344 120.139C29.0044 120.139 36.1144 113.029 36.1144 104.259C36.1144 95.489 29.0044 88.3791 20.2344 88.3791ZM20.2344 114.019C14.8444 114.019 10.4744 109.649 10.4744 104.259C10.4744 98.869 14.8444 94.4991 20.2344 94.4991C25.6244 94.4991 29.9944 98.869 29.9944 104.259C29.9944 109.649 25.6244 114.019 20.2344 114.019Z" fill="#00081A"/>
<path d="M20.2344 107.179C21.8471 107.179 23.1544 105.872 23.1544 104.259C23.1544 102.646 21.8471 101.339 20.2344 101.339C18.6218 101.339 17.3144 102.646 17.3144 104.259C17.3144 105.872 18.6218 107.179 20.2344 107.179Z" fill="white"/>
<path d="M109.014 104.259C109.014 105.869 107.704 107.179 106.094 107.179C104.484 107.179 103.174 105.869 103.174 104.259C103.174 102.649 104.484 101.339 106.094 101.339C107.714 101.349 109.014 102.649 109.014 104.259Z" fill="white"/>
<path d="M106.104 88.3791C97.3344 88.3791 90.2244 95.489 90.2244 104.259C90.2244 113.029 97.3344 120.139 106.104 120.139C114.874 120.139 121.984 113.029 121.984 104.259C121.984 95.489 114.874 88.3791 106.104 88.3791ZM106.104 114.019C100.714 114.019 96.3444 109.649 96.3444 104.259C96.3444 98.869 100.714 94.4991 106.104 94.4991C111.494 94.4991 115.864 98.869 115.864 104.259C115.864 109.649 111.494 114.019 106.104 114.019Z" fill="#00081A"/>
<path d="M31.5344 41.2991C31.5344 43.6191 33.4144 45.5091 35.7444 45.5091V37.0891C33.4144 37.0891 31.5344 38.9691 31.5344 41.2991Z" fill="white"/>
<path d="M48.8044 41.609C48.8044 41.609 48.7544 40.229 46.9744 40.139C45.1844 40.049 43.3944 38.929 43.1144 37.759C43.0444 37.469 43.0144 37.199 42.9944 36.949C42.9544 36.199 42.3144 35.629 41.5644 35.629H37.2244C36.4344 35.629 35.7944 36.269 35.7944 37.059V45.479C35.7944 46.269 36.4344 46.909 37.2244 46.909H40.5444C40.5444 46.909 42.5044 48.249 40.1544 51.489C37.8044 54.729 27.3644 68.469 24.5644 73.279C21.7744 78.079 21.4344 83.339 21.4344 83.339L23.6644 92.609L37.9644 100.659L42.3244 104.739C42.8944 105.279 43.6544 105.579 44.4444 105.579H91.9444V98.3191H129.264C129.264 98.3191 126.914 83.789 111.274 74.519H76.3044C76.3044 74.519 82.2644 80.9991 81.0144 90.049C79.7644 99.099 70.6044 101.889 66.8044 101.889C63.0044 101.889 53.7344 101.889 48.9244 101.889C44.1244 101.889 38.1944 92.389 37.6344 82.559C37.0744 72.729 40.4644 64.199 44.5644 58.519C47.1544 54.919 49.1444 51.389 49.3644 48.589C49.5944 45.809 48.8044 41.609 48.8044 41.609Z" fill="url(#paint0_linear)"/>
<path d="M131.584 94.7491H122.284C121.294 94.7491 120.494 95.549 120.494 96.539C120.494 97.529 121.294 98.3291 122.284 98.3291H131.584C132.574 98.3291 133.374 97.529 133.374 96.539C133.364 95.549 132.564 94.7491 131.584 94.7491Z" fill="#00081A"/>
<path d="M20.2344 82.679C9.35443 82.679 0.534424 91.4991 0.534424 102.379H39.9444C39.9344 91.4991 31.1144 82.679 20.2344 82.679Z" fill="url(#paint1_linear)"/>
<path d="M127.254 102.789H87.3644C87.3644 102.789 82.1244 95.7691 85.5744 87.8191C90.1544 77.2591 103.704 79.0991 111.414 83.5691C119.124 88.0391 124.804 96.1991 127.254 102.789Z" fill="url(#paint2_linear)"/>
<path d="M75.6444 75.449L74.6744 76.8191C74.4844 77.0891 74.1644 77.259 73.8344 77.259C73.2644 77.259 72.8044 76.799 72.8044 76.229V68.569C72.8044 68.339 72.9844 68.159 73.2144 68.159H95.0044C98.6844 68.159 101.964 66.949 103.544 65.649C104.044 65.239 104.794 65.379 105.124 65.939C106.024 67.529 107.064 70.629 104.444 74.349C104.364 74.459 104.234 74.529 104.104 74.529H77.4444C76.7244 74.519 76.0644 74.869 75.6444 75.449Z" fill="#00081A"/>
<path d="M117.764 96.979H92.3944C92.0244 96.979 91.7244 97.279 91.7244 97.649C91.7244 98.019 92.0244 98.3191 92.3944 98.3191H117.764C118.134 98.3191 118.434 98.019 118.434 97.649C118.434 97.279 118.134 96.979 117.764 96.979Z" fill="white"/>
<path d="M110.754 93.2391H92.3944C92.0244 93.2391 91.7244 93.5391 91.7244 93.9091C91.7244 94.2791 92.0244 94.5791 92.3944 94.5791H110.754C111.124 94.5791 111.424 94.2791 111.424 93.9091C111.424 93.5391 111.124 93.2391 110.754 93.2391Z" fill="white"/>
<path d="M104.404 89.4991H92.3944C92.0244 89.4991 91.7244 89.7991 91.7244 90.1691C91.7244 90.5391 92.0244 90.8391 92.3944 90.8391H104.404C104.774 90.8391 105.074 90.5391 105.074 90.1691C105.074 89.7991 104.774 89.4991 104.404 89.4991Z" fill="white"/>
<path d="M133.364 57.319H107.294V73.669H133.364V57.319Z" fill="url(#paint3_linear)"/>
<path d="M129.274 46.949H111.394V57.309H129.274V46.949Z" fill="url(#paint4_linear)"/>
<path d="M115.414 74.299C115.404 74.299 115.394 74.299 115.384 74.299C115.264 74.279 115.174 74.169 115.194 74.049L119.214 46.929C119.234 46.809 119.344 46.719 119.464 46.739C119.584 46.759 119.674 46.869 119.654 46.989L115.634 74.109C115.614 74.219 115.524 74.299 115.414 74.299Z" fill="black"/>
<path d="M125.814 74.299C125.704 74.299 125.614 74.219 125.594 74.109L121.574 46.989C121.554 46.869 121.644 46.749 121.764 46.739C121.884 46.719 122.004 46.809 122.014 46.929L126.034 74.049C126.054 74.169 125.964 74.289 125.844 74.299C125.834 74.299 125.824 74.299 125.814 74.299Z" fill="black"/>
<path fill-rule="evenodd" clip-rule="evenodd" d="M37.0844 66.609C37.0844 66.609 34.0744 70.979 33.0444 76.459L30.1944 76.629C30.1944 76.629 32.0144 71.399 34.5044 67.799L37.0844 66.609Z" fill="white"/>
<path d="M136.484 74.519H104.054C103.804 74.519 103.604 74.319 103.604 74.069C103.604 73.819 103.804 73.619 104.054 73.619H136.484C136.734 73.619 136.934 73.819 136.934 74.069C136.934 74.319 136.734 74.519 136.484 74.519Z" fill="black"/>
<path d="M49.3944 48.8891C49.3744 49.1491 49.2344 49.5191 49.1944 49.7891C48.5444 49.8791 48.2044 49.9091 47.9344 49.9291C46.6744 50.0191 44.0744 46.6591 44.0744 45.6591C44.0744 44.8791 46.8344 42.3491 48.7144 41.1891C48.8544 41.5791 49.6344 45.7991 49.3944 48.8891Z" fill="#FB8F08"/>
<path d="M53.4644 47.309C53.3144 47.079 53.1044 46.889 52.8644 46.749V46.739C52.6544 46.629 50.5244 45.419 50.5244 45.419V45.429C50.2744 45.309 50.0044 45.239 49.7144 45.239C48.6644 45.239 47.8144 46.089 47.8144 47.139C47.8144 47.479 47.9044 47.799 48.0644 48.069C48.2044 48.309 48.3844 48.519 48.6244 48.679L48.6344 48.689C48.7244 48.749 48.8044 48.789 48.8944 48.839L49.6144 49.239L50.8344 49.929C50.8344 49.929 50.8444 49.939 50.8544 49.939L51.0744 50.069C51.3344 50.189 51.6044 50.259 51.8944 50.259C52.8644 50.259 53.6544 49.539 53.7844 48.619C53.7944 48.529 53.8044 48.449 53.8044 48.359C53.7944 47.989 53.6744 47.609 53.4644 47.309Z" fill="#00081A"/>
<path d="M59.8544 94.359H55.7444C55.7444 94.359 54.2544 96.369 52.2444 96.629C51.1144 96.779 49.0144 96.759 47.3944 96.709C46.1744 96.679 45.1644 97.659 45.1644 98.879C45.1644 100.079 46.1344 101.049 47.3344 101.049H59.8444C60.3844 101.049 60.8144 100.619 60.8144 100.079L59.8544 94.359Z" fill="#00081A"/>
<path d="M60.1844 95.079H56.0744C56.0744 95.079 54.5844 97.089 52.5744 97.349C51.4444 97.499 49.3444 97.479 47.7244 97.429C46.5044 97.399 45.4944 98.379 45.4944 99.599C45.4944 100.799 46.4644 101.769 47.6644 101.769H60.1744C60.7144 101.769 61.1444 101.339 61.1444 100.799L60.1844 95.079Z" fill="#00081A"/>
<path d="M56.4644 94.749C56.6244 95.609 57.3744 96.259 58.2744 96.259C59.1744 96.259 59.9244 95.609 60.0844 94.749H56.4644Z" fill="#FCB3BB"/>
<path d="M91.3644 58.529C91.3644 58.529 65.4344 58.529 59.2944 58.529C51.0744 58.529 51.0744 67.089 51.0744 70.699C51.0744 74.309 53.9944 94.579 53.9944 94.579H60.2144L62.1344 70.699C62.1344 70.699 80.8744 70.699 85.7844 70.699C90.6944 70.699 93.7444 65.169 91.3644 58.529Z" fill="#37255C"/>
<path d="M91.9444 59.769C91.9444 59.769 66.2444 59.769 60.2844 59.769C52.3144 59.769 52.3144 68.079 52.3144 71.579C52.3144 75.079 55.1444 94.749 55.1444 94.749H61.1744L63.0344 71.579C63.0344 71.579 81.2144 71.579 85.9744 71.579C90.7544 71.579 94.2544 66.219 91.9444 59.769Z" fill="url(#paint5_linear)"/>
<path d="M81.8244 16.959C81.8244 16.959 84.0044 14.619 85.2644 10.889C85.2644 10.889 78.9944 2.14905 68.4644 6.87905L81.8244 16.959Z" fill="#442F6E"/>
<path d="M68.4444 6.87904C68.4444 6.87904 67.7044 12.389 69.7244 16.669C71.7444 20.949 72.2444 21.049 75.8844 20.329L76.5044 25.039L83.4144 22.589C83.4144 22.589 80.7744 15.219 81.8144 13.889C82.6944 12.769 83.0044 10.819 81.7244 10.139C79.6944 9.06904 78.2144 11.429 78.1244 12.419L77.1244 8.70903C77.1244 8.71903 69.9944 6.29904 68.4444 6.87904Z" fill="url(#paint6_linear)"/>
<path d="M70.5444 7.43906C70.5144 7.43906 70.4944 7.43906 70.4644 7.42906L59.0144 5.14906C58.8044 5.10906 58.6744 4.90906 58.7144 4.69906C58.7544 4.48906 58.9544 4.35906 59.1644 4.39906L70.6144 6.67906C70.8244 6.71906 70.9544 6.91906 70.9144 7.12906C70.8744 7.30906 70.7144 7.43906 70.5444 7.43906Z" fill="#CC0A31"/>
<path d="M68.4844 7.06904L85.3444 10.859C85.3444 10.859 87.1044 2.75904 79.7044 0.66904C72.3044 -1.43096 68.6844 3.30904 68.4844 7.06904Z" fill="url(#paint7_linear)"/>
<path d="M83.6044 39.889C83.6044 39.889 83.4144 40.399 83.1044 41.179C83.0144 41.419 82.9044 41.689 82.7844 41.979C82.7344 42.079 82.6944 42.189 82.6444 42.299C82.5944 42.399 82.5544 42.509 82.5044 42.619C81.6044 44.669 80.3144 47.199 79.2844 47.719C78.7044 48.009 75.8444 48.039 72.2744 47.969C64.9744 47.799 54.7044 47.119 54.7044 47.119C54.7044 47.119 54.2044 47.199 53.4544 47.319C53.3044 47.089 53.0944 46.899 52.8544 46.759V46.749C52.6444 46.639 50.5144 45.429 50.5144 45.429V45.439C50.2644 45.319 49.9944 45.249 49.7044 45.249C48.6544 45.249 47.8044 46.099 47.8044 47.149C47.8044 47.489 47.8944 47.809 48.0544 48.079C48.0344 48.089 48.0144 48.089 47.9944 48.089C47.1044 48.139 45.4744 46.299 44.8344 45.079C45.5444 44.099 47.4644 42.449 48.7944 41.619C48.7944 41.619 48.7744 41.029 48.2644 40.599C48.9644 40.109 49.5844 39.769 49.9244 39.749C51.0444 39.669 55.8844 42.959 55.8844 42.959L71.8744 42.099L75.4144 41.909L75.5244 41.559L75.6344 41.239L75.7344 40.919L76.4544 38.789L83.6044 39.889Z" fill="#FA8B98"/>
<path d="M73.5944 58.879C73.5944 58.879 72.1644 37.259 74.1844 29.719C76.1444 22.369 82.5644 19.439 86.1344 24.129C89.7144 28.819 88.2944 36.389 88.5944 42.569C89.1544 54.079 91.8344 57.649 91.9444 59.779H73.5944V58.879Z" fill="url(#paint8_linear)"/>
<path fill-rule="evenodd" clip-rule="evenodd" d="M87.1844 31.589L84.5744 43.169L74.1444 41.579L76.9744 30.099L87.1844 31.589Z" fill="#412C73" fill-opacity="0.96"/>
<path d="M83.6044 41.259C83.6044 41.259 83.4944 41.569 83.2944 42.059C83.2644 42.159 83.2044 42.259 83.1644 42.379C83.1344 42.479 83.0744 42.579 83.0344 42.699C82.1844 44.779 80.5444 48.449 79.2744 49.079C78.6944 49.369 75.9144 49.409 72.3944 49.339H72.3844C65.0844 49.169 54.6944 48.489 54.6944 48.489C54.6944 48.489 54.3244 48.549 53.7644 48.639C53.7744 48.549 53.7844 48.469 53.7844 48.379C53.7844 47.989 53.6644 47.609 53.4544 47.309C53.3044 47.079 53.0944 46.889 52.8544 46.749V46.739C52.6444 46.629 50.5144 45.419 50.5144 45.419V45.429C50.2644 45.309 49.9944 45.239 49.7044 45.239C48.6544 45.239 47.8044 46.089 47.8044 47.139C47.8044 47.479 47.8944 47.799 48.0544 48.069C48.1944 48.309 48.3744 48.519 48.6144 48.679L48.6244 48.689C48.7144 48.749 48.7944 48.789 48.8844 48.839L49.6044 49.239C49.4944 49.259 49.3844 49.269 49.2844 49.279C48.7144 49.359 48.2444 49.419 48.0044 49.429C46.8844 49.509 44.5744 46.529 44.5744 45.629C44.5744 45.489 44.6744 45.299 44.8444 45.049C45.5544 44.069 47.4744 42.419 48.8044 41.589C49.2844 41.289 49.6844 41.099 49.9344 41.089C51.0544 41.009 55.8944 44.289 55.8944 44.289L71.9444 43.439H71.9544L75.4244 43.249L75.9744 41.589L76.0844 41.269L76.1844 40.949L76.4644 40.109L83.1044 41.149L83.6044 41.259Z" fill="url(#paint9_linear)"/>
<path d="M76.9744 29.719L74.8544 41.109L84.1244 42.529L87.1844 31.209L76.9744 29.719Z" fill="url(#paint10_linear)"/>
<path d="M74.1944 26.869V26.879L74.1844 26.869H74.1944Z" fill="#FA8B98"/>
<defs>
<linearGradient id="paint0_linear" x1="23.7134" y1="54.7706" x2="116.793" y2="115.97" gradientUnits="userSpaceOnUse">
<stop stop-color="#27115A"/>
<stop offset="1" stop-color="#3C02C5"/>
</linearGradient>
<linearGradient id="paint1_linear" x1="0.531124" y1="92.5311" x2="39.9385" y2="92.5311" gradientUnits="userSpaceOnUse">
<stop stop-color="#27115A"/>
<stop offset="1" stop-color="#532FA5"/>
</linearGradient>
<linearGradient id="paint2_linear" x1="84.395" y1="91.4073" x2="127.248" y2="91.4073" gradientUnits="userSpaceOnUse">
<stop stop-color="#27115A"/>
<stop offset="1" stop-color="#532FA5"/>
</linearGradient>
<linearGradient id="paint3_linear" x1="107.38" y1="65.4906" x2="132.999" y2="65.4906" gradientUnits="userSpaceOnUse">
<stop stop-color="#E09E4F"/>
<stop offset="1" stop-color="#CD8B3A"/>
</linearGradient>
<linearGradient id="paint4_linear" x1="111.392" y1="52.1339" x2="129.27" y2="52.1339" gradientUnits="userSpaceOnUse">
<stop stop-color="#F4B073"/>
<stop offset="1" stop-color="#E2995C"/>
</linearGradient>
<linearGradient id="paint5_linear" x1="52.311" y1="77.2626" x2="92.6677" y2="77.2626" gradientUnits="userSpaceOnUse">
<stop stop-color="#27115A"/>
<stop offset="1" stop-color="#532FA5"/>
</linearGradient>
<linearGradient id="paint6_linear" x1="68.4829" y1="11.0188" x2="82.1255" y2="19.46" gradientUnits="userSpaceOnUse">
<stop stop-color="#FDD7DB"/>
<stop offset="1" stop-color="#FBADAF"/>
</linearGradient>
<linearGradient id="paint7_linear" x1="68.483" y1="5.50693" x2="85.5247" y2="5.50693" gradientUnits="userSpaceOnUse">
<stop stop-color="#27115A"/>
<stop offset="1" stop-color="#532FA5"/>
</linearGradient>
<linearGradient id="paint8_linear" x1="73.1017" y1="40.8236" x2="91.9416" y2="40.8236" gradientUnits="userSpaceOnUse">
<stop stop-color="#27115A"/>
<stop offset="1" stop-color="#532FA5"/>
</linearGradient>
<linearGradient id="paint9_linear" x1="44.5703" y1="44.797" x2="83.6038" y2="44.797" gradientUnits="userSpaceOnUse">
<stop stop-color="#FDD7DB"/>
<stop offset="1" stop-color="#FBADAF"/>
</linearGradient>
<linearGradient id="paint10_linear" x1="74.8534" y1="36.1253" x2="87.1826" y2="36.1253" gradientUnits="userSpaceOnUse">
<stop stop-color="#27115A"/>
<stop offset="1" stop-color="#532FA5"/>
</linearGradient>
</defs>
</svg>
